<svg width="64" height="64" viewBox="0 0 64 64" fill="none" xmlns="http://www.w3.org/2000/svg">
<rect width="64" height="64" rx="15" fill="#F5FAFF"/>
<path d="M53.3333 3.55554H10.6667C6.75563 3.55554 3.55554 6.75552 3.55554 10.6667V53.3333C3.55554 57.2621 6.75563 60.4444 10.6667 60.4444H53.3333C57.2622 60.4444 60.4444 57.2621 60.4444 53.3333V10.6667C60.4444 6.75552 57.2622 3.55554 53.3333 3.55554ZM51.5555 48.4444H37.6711C36.9245 50.7555 34.7378 52.4444 32.1778 52.4444C29.6178 52.4444 27.4312 50.7555 26.6844 48.4444H12.4444C11.4667 48.4444 10.6667 47.6444 10.6667 46.6667C10.6667 45.6888 11.4667 44.8889 12.4444 44.8889H26.6844C27.4312 42.5777 29.6178 40.8889 32.1778 40.8889C34.7378 40.8889 36.9245 42.5777 37.6711 44.8889H51.5555C52.5334 44.8889 53.3333 45.6888 53.3333 46.6667C53.3333 47.6444 52.5334 48.4444 51.5555 48.4444ZM51.5555 33.7778H26.1511C25.4045 36.1066 23.2178 37.7778 20.6578 37.7778C18.0979 37.7778 15.9111 36.1066 15.1645 33.7778H12.4444C11.4667 33.7778 10.6667 32.9777 10.6667 32C10.6667 31.0221 11.4667 30.2222 12.4444 30.2222H15.1645C15.9111 27.8933 18.0979 26.2222 20.6578 26.2222C23.2178 26.2222 25.4045 27.8933 26.1511 30.2222H51.5555C52.5334 30.2222 53.3333 31.0221 53.3333 32C53.3333 32.9777 52.5334 33.7778 51.5555 33.7778ZM51.5555 19.1111H42.56C41.8134 21.4222 39.6267 23.1111 37.0667 23.1111C34.5067 23.1111 32.3201 21.4222 31.5733 19.1111H12.4444C11.4667 19.1111 10.6667 18.3111 10.6667 17.3333C10.6667 16.3555 11.4667 15.5555 12.4444 15.5555H31.5733C32.3201 13.2443 34.5067 11.5555 37.0667 11.5555C39.6267 11.5555 41.8134 13.2443 42.56 15.5555H51.5555C52.5334 15.5555 53.3333 16.3555 53.3333 17.3333C53.3333 18.3111 52.5334 19.1111 51.5555 19.1111Z" fill="#071C99"/>
</svg>
