<svg width="55" height="54" viewBox="0 0 55 54" fill="none" xmlns="http://www.w3.org/2000/svg">
<path d="M44.7597 30.794L44.7597 30.794C46.5387 27.733 47.4796 24.2327 47.4796 20.6719C47.4796 9.54948 38.4301 0.5 27.3077 0.5C16.1853 0.5 7.13586 9.54948 7.13586 20.6719C7.13586 24.2327 8.07673 27.733 9.85578 30.7941C10.2707 31.5079 10.7346 32.2036 11.2345 32.8618L11.2368 32.8649L26.6602 53.5H27.9554L43.3787 32.8648L43.3811 32.8617C43.881 32.2036 44.3448 31.5078 44.7597 30.794ZM34.6632 20.6719C34.6632 24.7281 31.364 28.0273 27.3077 28.0273C23.2515 28.0273 19.9523 24.7281 19.9523 20.6719C19.9523 16.6156 23.2515 13.3164 27.3077 13.3164C31.364 13.3164 34.6632 16.6156 34.6632 20.6719Z" fill="#071C99" stroke="white"/>
</svg>
