<svg width="58" height="58" viewBox="0 0 58 58" fill="none" xmlns="http://www.w3.org/2000/svg">
<path fill-rule="evenodd" clip-rule="evenodd" d="M31.2544 4.13324V26.2253H55.4608C55.8008 26.2253 56.0934 26.0918 56.3164 25.835C56.5391 25.5783 56.6305 25.2698 56.5827 24.9333C54.8755 12.9026 44.8017 3.56457 32.4387 3.00133C32.118 2.98672 31.8369 3.0923 31.6046 3.3141C31.3725 3.53579 31.2544 3.81209 31.2544 4.13324ZM33.5887 30.8941L48.5265 45.8317C48.7535 46.0587 49.0325 46.1706 49.3535 46.1632C49.6746 46.1557 49.9482 46.0312 50.1645 45.794C53.5422 42.09 55.8461 37.3899 56.5844 32.186C56.6322 31.8494 56.5411 31.541 56.3183 31.2843C56.0955 31.0276 55.8029 30.8941 55.4629 30.8941H33.5887ZM43.8199 49.4039C39.2728 53.5505 33.2243 56.079 26.5854 56.079C12.4549 56.079 1 44.6241 1 30.4937C1 16.7602 11.8203 5.55401 25.4009 4.93527C25.7216 4.92066 26.0028 5.02635 26.235 5.24804C26.4672 5.46984 26.5854 5.74614 26.5854 6.06729V30.4937L43.8575 47.7658C44.0845 47.9928 44.1964 48.2719 44.1889 48.593C44.1817 48.914 44.0572 49.1876 43.8199 49.4039Z" fill="#071C99"/>
</svg>
