<svg width="56" height="56" viewBox="0 0 56 56" fill="none" xmlns="http://www.w3.org/2000/svg">
<g clip-path="url(#clip0_108_137)">
<path d="M36.837 1.94307C37.6678 3.1753 38.4351 4.5934 39.1306 6.18477C39.1306 6.18487 39.1307 6.18498 39.1307 6.18508L38.6726 6.38531C39.8166 8.99828 40.7288 11.9963 41.3851 15.2447L36.837 1.94307ZM36.837 1.94307C39.958 2.99341 42.8677 4.60036 45.4233 6.69002C48.1516 8.92092 50.4209 11.6566 52.1085 14.7447H41.7926L36.837 1.94307ZM20.7918 48.1007L20.7917 48.1007C19.9008 46.0647 19.1603 43.7582 18.5868 41.2542H37.4127C36.8392 43.7572 36.0987 46.0638 35.2078 48.1007C34.1533 50.5109 32.951 52.3768 31.7012 53.6324C30.4495 54.8899 29.188 55.5 27.9998 55.5C26.8115 55.5 25.55 54.8899 24.2984 53.6324C23.0485 52.3768 21.8462 50.5109 20.7918 48.1007ZM38.8266 27.9991L38.8266 28.0009C38.8322 31.0032 38.6237 34.0018 38.2027 36.9741H17.7976C16.9647 31.0204 16.9647 24.9796 17.7976 19.0259H38.2027C38.6237 21.9982 38.8322 24.9968 38.8266 27.9991ZM35.2078 7.89928L35.2078 7.89935C36.0987 9.93528 36.8393 12.2418 37.4127 14.7458H18.5869C19.1603 12.2428 19.9009 9.93621 20.7918 7.89928C21.8463 5.48855 23.0485 3.62266 24.2984 2.36717C25.55 1.10993 26.8115 0.5 27.9998 0.5C29.1881 0.5 30.4496 1.10993 31.7012 2.36717C32.951 3.62266 34.1533 5.48855 35.2078 7.89928ZM19.1656 1.94104C18.3361 3.17357 17.5689 4.59131 16.8722 6.1826L16.8722 6.18273C15.7589 8.72738 14.8665 11.6212 14.2104 14.7425H3.89112C5.57908 11.6548 7.84845 8.91951 10.5767 6.68885C13.1331 4.59872 16.0437 2.99148 19.1656 1.94104ZM54.0047 36.9741H42.5234C42.9164 33.9991 43.1113 31.0012 43.1068 28C43.1113 24.9988 42.9164 22.0009 42.5234 19.0259H54.0047C56.0036 24.8415 56.0036 31.1585 54.0047 36.9741ZM1.99485 36.9741C-0.00401942 31.1585 -0.00401946 24.8415 1.99485 19.0259H13.4768C12.6966 24.9832 12.6966 31.0168 13.4768 36.9741H1.99485ZM19.1623 54.0566C16.0408 53.0061 13.1308 51.3989 10.575 49.3088C7.84721 47.0781 5.57838 44.3429 3.891 41.2553H14.2069C14.8622 44.3788 15.7557 47.2726 16.8689 49.8152C17.5656 51.4065 18.3327 52.8241 19.1623 54.0566ZM41.7892 41.2553H52.1086C50.4209 44.3436 48.1517 47.0794 45.4233 49.3104C42.8664 51.4013 39.9551 53.009 36.8322 54.0595C37.6627 52.8264 38.431 51.4077 39.1274 49.8151C40.2406 47.2704 41.133 44.3766 41.7892 41.2553Z" fill="#071C99" stroke="white"/>
</g>
<defs>
<clipPath id="clip0_108_137">
<rect width="56" height="56" rx="15" fill="white"/>
</clipPath>
</defs>
</svg>
